<svg width="80" height="80" viewBox="0 0 80 80" fill="none" xmlns="http://www.w3.org/2000/svg">
<path fill-rule="evenodd" clip-rule="evenodd" d="M41.9988 34.3107C39.4657 32.2817 38.8931 28.7352 39.3426 25.5209C39.4464 24.7789 39.5 24.0207 39.5 23.25C39.5 14.2754 32.2246 7 23.25 7C14.2754 7 7 14.2754 7 23.25C7 32.2246 14.2754 39.5 23.25 39.5C25.7448 39.5 28.1082 38.9379 30.2204 37.9332C33.4543 36.3953 37.4815 35.8974 40.2765 38.1361L48.0631 44.3731C49.7968 45.7618 50.3333 48.112 50.3333 50.3333C50.3333 51.2666 49.8844 52.1736 49.0523 52.5963L39.7176 57.3378C36.2675 59.0902 31.8919 57.1038 28.1674 56.0539C27.465 55.8559 26.724 55.75 25.9583 55.75C21.471 55.75 17.8333 59.3877 17.8333 63.875C17.8333 68.3623 21.471 72 25.9583 72C28.8546 72 31.3969 70.4845 32.8356 68.2035C34.0529 66.2735 35.2587 64.1591 37.2931 63.1257L46.0807 58.6621C49.284 57.0351 53.1793 58.486 56.4054 60.0671C57.8425 60.7712 59.4584 61.1667 61.1667 61.1667C67.1498 61.1667 72 56.3164 72 50.3333C72 44.3502 67.1498 39.5 61.1667 39.5C60.2341 39.5 59.3288 39.6178 58.4652 39.8395C54.9673 40.7373 50.8329 41.3866 48.0142 39.1288L41.9988 34.3107Z" fill="#F5B150"/>
</svg>
