<svg width="80" height="80" viewBox="0 0 80 80" fill="none" xmlns="http://www.w3.org/2000/svg">
<path fill-rule="evenodd" clip-rule="evenodd" d="M55.4523 71.3575C55.4209 71.3764 55.3892 71.3949 55.3571 71.4131C53.2296 72.6212 50.5093 71.9043 49.281 69.812C48.8518 69.0809 48.6616 68.2785 48.6865 67.4925C48.7346 65.9777 48.7586 65.2203 48.7141 65.0732C48.6697 64.9262 48.2261 64.3003 47.3392 63.0484C47.2668 62.9463 47.1981 62.8402 47.1337 62.7304C45.9053 60.638 46.6343 57.9626 48.7618 56.7545C49.1513 56.5334 49.2685 55.9374 48.9996 55.5827C48.9047 55.4577 48.8163 55.3259 48.7351 55.1875C47.6136 53.2771 48.2792 50.8344 50.2216 49.7314C50.5088 49.5682 50.8078 49.4436 51.1125 49.3557C52.6944 48.8996 53.4854 48.6716 53.5857 48.6146C53.6859 48.5577 54.2823 47.998 55.4749 46.8788C55.7046 46.6632 55.9639 46.4708 56.2511 46.3078C58.1935 45.2048 60.6773 45.8594 61.7987 47.7697C61.8244 47.8134 61.8492 47.8574 61.8729 47.9017C62.0699 48.2679 62.5871 48.4202 62.9519 48.213C65.0793 47.0049 67.7997 47.7219 69.028 49.8142C69.0461 49.8449 69.0637 49.8758 69.0809 49.9069C69.993 51.5498 70.449 52.3714 70.53 52.4576C70.6111 52.544 71.404 53.0541 72.9899 54.0746C73.5544 54.4378 74.0431 54.9332 74.4033 55.547C75.6315 57.6393 74.9026 60.3148 72.7752 61.5227C72.7429 61.5411 72.7104 61.5591 72.6778 61.5765C72.6408 61.5992 72.597 61.624 72.5463 61.6528L55.5859 71.2833C55.5349 71.3122 55.491 71.3372 55.4523 71.3575Z" fill="#F5B150"/>
<path d="M50.5218 11.4661C54.4426 6.82951 61.1893 5.64458 66.4996 8.65989C71.8099 11.6752 74.1398 18.0141 72.0175 23.6719L70.0383 28.9479C69.9555 29.169 69.914 29.2795 69.8769 29.367C68.814 31.8789 65.7899 32.9541 63.3394 31.6913C63.254 31.6473 63.1503 31.5883 62.9429 31.4705L48.1919 23.0946C47.9844 22.9768 47.8807 22.9179 47.7993 22.8672C45.462 21.4115 44.8967 18.2981 46.5771 16.1368C46.6358 16.0614 46.7123 15.9709 46.8655 15.7898L50.5218 11.4661Z" fill="#F5B150"/>
<path fill-rule="evenodd" clip-rule="evenodd" d="M47.3726 41.7885C47.9831 40.3855 49.6212 39.2878 51.0201 38.6277C51.7526 38.2821 52.3903 37.723 52.8272 36.9789C53.9808 35.0137 53.2962 32.5009 51.2981 31.3664C49.9876 30.6222 48.4376 30.6558 47.2005 31.3215C46.2186 31.8499 44.8549 32.0394 43.8856 31.4891C42.9162 30.9387 42.4013 29.6822 42.3756 28.5816C42.3431 27.1952 41.5975 25.8582 40.2872 25.1141C38.289 23.9796 35.7341 24.6528 34.5805 26.618C34.1436 27.3623 33.9704 28.1851 34.0322 28.9818C34.1505 30.5033 34.0031 32.4474 33.0729 33.6688L29.4474 38.4295C27.6697 40.7638 26.7809 41.9309 26.6196 43.1328C26.4813 44.1633 26.6995 45.2097 27.2388 46.1037C27.8677 47.1462 29.1518 47.8753 31.7199 49.3337L34.2554 50.7733C36.8235 52.2316 38.1075 52.9607 39.34 52.9751C40.397 52.9875 41.4273 52.6501 42.2657 52.0171C43.2434 51.2788 43.8267 49.9381 44.9933 47.2569L47.3726 41.7885Z" fill="#F5B150"/>
<path d="M28.8659 68.1173C26.4917 69.6134 25.3046 70.3614 24.08 70.6579C22.3429 71.0783 20.5107 70.8833 18.9052 70.1071C17.7734 69.56 16.7765 68.5795 14.7827 66.6186L12.4395 64.314C10.4457 62.353 9.44869 61.3726 8.89234 60.2594C8.10316 58.6805 7.90489 56.8786 8.33237 55.1701C8.63374 53.9657 9.39433 52.7982 10.9155 50.4632C12.3093 48.3236 13.0062 47.2538 13.88 46.7056C15.1205 45.9271 16.6597 45.7633 18.0408 46.2627C19.0136 46.6145 19.9271 47.513 21.7539 49.3097L30.0387 57.4578C31.8656 59.2545 32.7791 60.1528 33.1368 61.1096C33.6446 62.468 33.4781 63.9818 32.6865 65.2018C32.1289 66.0611 31.0413 66.7465 28.8659 68.1173Z" fill="#F5B150"/>
<path d="M12.1834 11.0751C13.5142 9.76634 15.4537 9.25523 17.2713 9.73426L24.9766 11.7648C26.7943 12.2438 28.2141 13.6402 28.7012 15.428L30.7657 23.0059C31.2528 24.7937 30.7331 26.7012 29.4024 28.0099L23.7618 33.5574C22.4312 34.8662 20.4917 35.3772 18.674 34.8983L10.9687 32.8677C9.15107 32.3886 7.73126 30.9923 7.24421 29.2045L5.1796 21.6265C4.69255 19.8388 5.21223 17.9313 6.5429 16.6226L12.1834 11.0751Z" fill="#F5B150"/>
</svg>
