<svg width="80" height="80" viewBox="0 0 80 80" fill="none" xmlns="http://www.w3.org/2000/svg">
<path fill-rule="evenodd" clip-rule="evenodd" d="M36.4241 36.4335C38.6446 37.6698 41.3558 37.6698 43.5761 36.4335L63.5255 25.3266C66.0043 23.9466 66.0043 20.4142 63.5255 19.0342L43.5759 7.92714C41.3554 6.69095 38.6442 6.69095 36.4239 7.92714L16.4745 19.0342C13.9957 20.4142 13.9957 23.9466 16.4745 25.3266L36.4241 36.4335ZM38.1765 46.0948C38.1765 43.4739 36.7414 41.0589 34.4273 39.7852L14.4195 28.7731C11.9886 27.4351 9 29.1749 9 31.9279V54.218C9 56.8389 10.4351 59.254 12.7492 60.5277L32.7569 71.5398C35.1879 72.8778 38.1765 71.1381 38.1765 68.385V46.0948ZM41.8235 46.0948C41.8235 43.4739 43.2586 41.0589 45.5727 39.7852L65.5805 28.7731C68.0114 27.4351 71 29.1749 71 31.9279V54.218C71 56.8389 69.5649 59.254 67.2508 60.5277L47.2431 71.5398C44.8121 72.8778 41.8235 71.1381 41.8235 68.385V46.0948Z" fill="#F5B150"/>
</svg>
