<?xml version="1.0" encoding="UTF-8"?> <svg xmlns="http://www.w3.org/2000/svg" width="1592" height="440" viewBox="0 0 1592 440" fill="none"> <path fill-rule="evenodd" clip-rule="evenodd" d="M0 221.789C0 100.163 36.2262 0 239 0C418.509 0 463.863 77.7964 472 180.65H312.375L300.095 164.255C291.562 152.863 291.273 137.082 291 122.186C290.937 118.786 290.876 115.432 290.717 112.187C290.409 105.864 288.631 99.5183 285.248 93.6586C273.888 73.9825 248.728 67.241 229.052 78.601C216.941 85.593 209.731 97.8128 208.625 110.764C207.595 122.831 204.106 136.375 193.618 142.43C183.13 148.486 169.655 144.735 158.69 139.594C146.921 134.076 132.733 134.211 120.623 141.203C100.947 152.563 94.2051 177.722 105.565 197.398C108.948 203.258 113.555 207.971 118.876 211.399C121.608 213.159 124.481 214.889 127.395 216.643C140.158 224.328 153.68 232.469 159.28 245.555L180.271 294.608C196.811 333.26 205.081 352.585 222.143 358.267C239.206 363.948 257.41 353.438 293.82 332.417L308.05 324.201C344.459 303.18 362.664 292.67 366.275 275.052C367.215 270.464 367.056 265.93 365.861 261.138H472C464.225 364.195 419.478 440 239 440C36.2262 440 0 343.415 0 221.789Z" fill="#0F1015"></path> <path fill-rule="evenodd" clip-rule="evenodd" d="M759.681 32C646.312 32 630 88 630 156C630 224 646.312 278 759.681 278C855.854 278 879.36 233.499 885.491 180H821.385C815.876 205.597 801.931 229 760.093 229C703.194 229 695 196.512 695 155.602C695 114.691 703.194 81 760.093 81C800.301 81 814.594 103.674 820.693 128H885.009C877.994 76.0382 853.536 32 759.681 32ZM1047 156L984 36H926V276H984V142L1044 276H1047H1075H1078L1138 142V276H1196V36H1138L1075 156L1061 184L1047 156ZM1532 36H1592V276H1532V36ZM1477.5 116C1477.5 76.5 1453 32.5 1360.5 32.5C1298.5 32.5 1253.5 48.8 1253.5 113C1253.5 152 1297.72 164.483 1349 176C1352.65 176.82 1356.27 177.618 1359.81 178.401C1394.47 186.051 1423 192.347 1423 205.5C1423 220 1410 231 1360.5 231C1318.5 231 1305 216.5 1305 188H1242C1242 244.5 1272.1 278.5 1360.5 278.5C1446 278.5 1484 254.7 1484 205.5C1484 156.3 1430 139.5 1360.5 125.5C1358.91 125.18 1357.28 124.86 1355.62 124.534C1335.49 120.584 1311 115.78 1311 101C1311 87 1322.5 81 1360.5 81C1418.65 81 1418.56 100.725 1418.5 114.686C1418.5 115.13 1418.5 115.568 1418.5 116H1477.5Z" fill="#0F1015"></path> <path d="M645.56 378.98C645.56 389.3 652.28 395.72 662.9 395.72C673.58 395.72 680.3 389.24 680.3 378.98V351.14H672.62V378.5C672.62 384.74 669.14 388.28 662.9 388.28C656.66 388.28 653.24 384.8 653.24 378.5V351.14H645.56V378.98Z" fill="black"></path> <path d="M688.426 363.38C688.426 370.1 692.326 374.36 699.766 375.98L706.726 377.54C710.326 378.32 711.826 380.06 711.826 383C711.826 386.66 708.586 388.88 703.486 388.88C698.566 388.88 695.566 386.66 695.506 382.94H687.826C688.006 390.8 694.126 395.78 703.486 395.78C713.146 395.78 719.506 390.5 719.506 382.34C719.506 375.8 715.846 371.96 708.346 370.34L701.446 368.84C697.786 368 696.106 366.26 696.106 363.14C696.106 359.48 699.166 357.2 703.906 357.2C708.226 357.2 710.926 359.42 711.106 363.2H718.786C718.546 355.28 712.906 350.36 704.026 350.36C694.786 350.36 688.426 355.7 688.426 363.38Z" fill="black"></path> <path d="M731.434 395L734.974 384.86H751.354L754.894 395H762.994L747.154 351.14H739.294L723.454 395H731.434ZM742.234 364.22C742.654 363.02 743.014 361.7 743.194 360.86C743.314 361.76 743.734 363.08 744.094 364.22L749.134 378.38H737.254L742.234 364.22Z" fill="black"></path> <path d="M806.266 357.62C811.546 357.62 815.986 360.02 817.366 365.18H825.466C824.206 356.24 816.466 350.42 806.446 350.42C793.246 350.42 784.546 359.9 784.546 373.22C784.546 386.72 793.126 395.66 805.426 395.66C811.366 395.66 816.346 393.32 818.746 389.96L819.226 395H825.706V370.34H805.306V377.12H818.566V377.3C818.566 384.32 813.946 388.52 806.326 388.52C798.226 388.52 792.586 383.18 792.586 373.4C792.586 363.92 797.566 357.62 806.266 357.62Z" fill="black"></path> <path d="M834.899 378.98C834.899 389.3 841.619 395.72 852.239 395.72C862.919 395.72 869.639 389.24 869.639 378.98V351.14H861.959V378.5C861.959 384.74 858.479 388.28 852.239 388.28C845.999 388.28 842.579 384.8 842.579 378.5V351.14H834.899V378.98Z" fill="black"></path> <path d="M887.726 395V379.28C887.726 373.82 887.666 369.68 887.246 367.04L898.346 395H905.426L916.586 366.98C916.166 370.1 916.166 372.68 916.166 381.5V395H923.606V351.14H916.046L901.886 386.06L887.726 351.14H880.286V395H887.726Z" fill="black"></path> <path d="M941.953 395V379.28C941.953 373.82 941.893 369.68 941.473 367.04L952.573 395H959.653L970.813 366.98C970.393 370.1 970.393 372.68 970.393 381.5V395H977.833V351.14H970.273L956.113 386.06L941.953 351.14H934.513V395H941.953Z" fill="black"></path> <path d="M999.301 377.72V395H1006.98V377.72L1021.74 351.14H1013.4L1004.82 367.1C1004.04 368.54 1003.8 369.26 1003.26 370.34C1002.78 369.26 1002.36 368.3 1001.7 367.1L993.061 351.14H984.481L999.301 377.72Z" fill="black"></path> <path d="M1053.19 395V379.28C1053.19 373.82 1053.13 369.68 1052.71 367.04L1063.81 395H1070.89L1082.05 366.98C1081.63 370.1 1081.63 372.68 1081.63 381.5V395H1089.07V351.14H1081.51L1067.35 386.06L1053.19 351.14H1045.75V395H1053.19Z" fill="black"></path> <path d="M1103.76 395L1107.3 384.86H1123.68L1127.22 395H1135.32L1119.48 351.14H1111.62L1095.78 395H1103.76ZM1114.56 364.22C1114.98 363.02 1115.34 361.7 1115.52 360.86C1115.64 361.76 1116.06 363.08 1116.42 364.22L1121.46 378.38H1109.58L1114.56 364.22Z" fill="black"></path> <path d="M1149.58 395V363.92L1170.22 395H1177.78V351.14H1170.22V382.22L1149.64 351.14H1142.02V395H1149.58Z" fill="black"></path> <path d="M1188.39 378.98C1188.39 389.3 1195.11 395.72 1205.73 395.72C1216.41 395.72 1223.13 389.24 1223.13 378.98V351.14H1215.45V378.5C1215.45 384.74 1211.97 388.28 1205.73 388.28C1199.49 388.28 1196.07 384.8 1196.07 378.5V351.14H1188.39V378.98Z" fill="black"></path> <path d="M1257.77 377.06V370.16H1241.45V358.22H1260.89V351.14H1233.77V395H1241.45V377.06H1257.77Z" fill="black"></path> <path d="M1270.1 395L1273.64 384.86H1290.02L1293.56 395H1301.66L1285.82 351.14H1277.96L1262.12 395H1270.1ZM1280.9 364.22C1281.32 363.02 1281.68 361.7 1281.86 360.86C1281.98 361.76 1282.4 363.08 1282.76 364.22L1287.8 378.38H1275.92L1280.9 364.22Z" fill="black"></path> <path d="M1324.73 395.72C1335.11 395.72 1343.15 389.6 1344.83 380.36H1336.85C1335.41 385.22 1330.85 388.34 1324.91 388.34C1316.87 388.34 1311.71 382.34 1311.71 373.04C1311.71 363.68 1316.81 357.8 1324.91 357.8C1330.73 357.8 1335.11 360.8 1336.61 365.9H1344.71C1343.21 356.48 1335.47 350.42 1325.09 350.42C1312.25 350.42 1303.67 359.48 1303.67 373.1C1303.67 386.84 1311.95 395.72 1324.73 395.72Z" fill="black"></path> <path d="M1346.68 358.22H1359.52V395H1367.2V358.22H1380.04V351.14H1346.68V358.22Z" fill="black"></path> <path d="M1386.81 378.98C1386.81 389.3 1393.53 395.72 1404.15 395.72C1414.83 395.72 1421.55 389.24 1421.55 378.98V351.14H1413.87V378.5C1413.87 384.74 1410.39 388.28 1404.15 388.28C1397.91 388.28 1394.49 384.8 1394.49 378.5V351.14H1386.81V378.98Z" fill="black"></path> <path d="M1439.87 395V378.62H1449.29L1456.73 395H1465.13L1456.79 377C1461.95 374.9 1464.71 370.7 1464.71 364.82C1464.71 356.18 1458.89 351.14 1448.93 351.14H1432.19V395H1439.87ZM1439.87 357.98H1448.93C1453.79 357.98 1456.67 360.44 1456.67 364.82C1456.67 369.26 1453.79 371.84 1448.93 371.84H1439.87V357.98Z" fill="black"></path> <path d="M1481.27 351.14H1473.59V395H1481.27V351.14Z" fill="black"></path> <path d="M1499.75 395V363.92L1520.39 395H1527.95V351.14H1520.39V382.22L1499.81 351.14H1492.19V395H1499.75Z" fill="black"></path> <path d="M1558.06 357.62C1563.34 357.62 1567.78 360.02 1569.16 365.18H1577.26C1576 356.24 1568.26 350.42 1558.24 350.42C1545.04 350.42 1536.34 359.9 1536.34 373.22C1536.34 386.72 1544.92 395.66 1557.22 395.66C1563.16 395.66 1568.14 393.32 1570.54 389.96L1571.02 395H1577.5V370.34H1557.1V377.12H1570.36V377.3C1570.36 384.32 1565.74 388.52 1558.12 388.52C1550.02 388.52 1544.38 383.18 1544.38 373.4C1544.38 363.92 1549.36 357.62 1558.06 357.62Z" fill="black"></path> </svg> 