<?xml version="1.0" encoding="UTF-8"?> <svg xmlns="http://www.w3.org/2000/svg" width="40" height="40" viewBox="0 0 40 40" fill="none"> <path fill-rule="evenodd" clip-rule="evenodd" d="M20.2016 5.83337C24.0133 5.83494 27.5909 7.31882 30.2811 10.0121C32.9713 12.7053 34.4521 16.2853 34.4507 20.0927C34.4474 27.9491 28.0547 34.3414 20.2017 34.3414H20.1959C17.8111 34.3406 15.4678 33.7422 13.3866 32.6071L5.83301 34.5885L7.85452 27.2048C6.60754 25.044 5.95141 22.5927 5.95251 20.0813C5.95557 12.225 12.3478 5.83337 20.2016 5.83337ZM20.1968 31.935H20.2016C26.7293 31.935 32.0421 26.622 32.0448 20.0917C32.046 16.9272 30.8153 13.9516 28.5793 11.713C26.3433 9.47446 23.3697 8.24091 20.2064 8.23992C13.6739 8.23992 8.36091 13.5523 8.35836 20.0821C8.35744 22.3199 8.98355 24.4993 10.169 26.3849L10.4507 26.833L9.25419 31.2033L13.7366 30.0275L14.169 30.2841C15.9874 31.3631 18.0718 31.9341 20.1968 31.935ZM24.2651 21.9067C24.5915 22.0256 26.3419 22.8868 26.6979 23.065C26.7674 23.0998 26.8324 23.1312 26.8927 23.1603C27.141 23.2803 27.3087 23.3614 27.3803 23.4809C27.4693 23.6293 27.4693 24.3422 27.1726 25.174C26.876 26.0055 25.4536 26.7646 24.7695 26.8668C24.156 26.9585 23.3799 26.9968 22.527 26.7257C22.0099 26.5617 21.3467 26.3426 20.4973 25.9758C17.1594 24.5344 14.9037 21.2992 14.4776 20.6881C14.4478 20.6453 14.4269 20.6154 14.4153 20.5998L14.4125 20.5961C14.2243 20.345 12.9614 18.6604 12.9614 16.9168C12.9614 15.277 13.767 14.4173 14.1379 14.0216C14.1633 13.9945 14.1867 13.9695 14.2076 13.9467C14.5339 13.5903 14.9197 13.5012 15.157 13.5012C15.3943 13.5012 15.632 13.5033 15.8393 13.5137C15.865 13.515 15.8916 13.5148 15.9192 13.5147C16.1267 13.5135 16.3853 13.512 16.6405 14.1248C16.7382 14.3596 16.8809 14.7071 17.0316 15.074C17.3385 15.8212 17.6785 16.6489 17.7382 16.7684C17.8272 16.9466 17.8865 17.1545 17.7678 17.3922C17.75 17.4279 17.7335 17.4615 17.7178 17.4937C17.6286 17.6756 17.5631 17.8095 17.4118 17.9861C17.3525 18.0553 17.2913 18.13 17.23 18.2046C17.1073 18.354 16.9846 18.5034 16.8777 18.6098C16.6995 18.7874 16.5139 18.9801 16.7216 19.3364C16.9293 19.6929 17.6438 20.8588 18.7023 21.8029C19.8399 22.8176 20.8287 23.2465 21.33 23.464C21.4279 23.5064 21.5072 23.5408 21.5654 23.57C21.9213 23.7483 22.1291 23.7184 22.3367 23.4809C22.5444 23.2433 23.2268 22.4413 23.4641 22.0849C23.7014 21.7285 23.9388 21.7879 24.2651 21.9067Z" fill="#0F1015"></path> </svg> 